<svg width="368" height="808" viewBox="0 0 368 808" fill="none" xmlns="http://www.w3.org/2000/svg">
<rect width="368" height="808" fill="#F5F5F5"/>
<g filter="url(#filter0_d_0_1)">
<rect width="360" height="800" transform="translate(4)" fill="white"/>
<mask id="path-1-outside-1_0_1" maskUnits="userSpaceOnUse" x="102.5" y="357" width="168" height="92" fill="black">
<rect fill="white" x="102.5" y="357" width="168" height="92"/>
<path d="M124.837 387V358.1H132.837L144.487 376.8H140.537L151.837 358.1H159.887L159.937 387H151.087L150.987 371.3H152.287L144.487 384.15H140.187L132.037 371.3H133.687V387H124.837ZM163.538 387L176.388 358.1H185.888L198.738 387H189.338L179.538 362.55H182.738L172.788 387H163.538ZM171.188 381.9L173.638 375.2H187.088L189.538 381.9H171.188ZM197.021 387L210.121 369.1V375.7L197.421 358.1H208.221L215.671 368.85L211.071 368.9L218.421 358.1H228.821L216.171 375.3V368.85L229.421 387H218.371L210.871 375.75H215.371L208.021 387H197.021ZM233.501 387V358.1H243.151V387H233.501ZM104.22 448V419.1H119.82C123.853 419.1 126.82 419.817 128.72 421.25C130.653 422.683 131.62 424.483 131.62 426.65C131.62 428.85 130.786 430.667 129.12 432.1C127.453 433.5 125.053 434.2 121.92 434.2L122.77 432.05C125.903 432.05 128.386 432.75 130.22 434.15C132.086 435.517 133.02 437.467 133.02 440C133.02 442.5 131.953 444.467 129.82 445.9C127.72 447.3 124.653 448 120.62 448H104.22ZM113.72 441.45H119.92C121.02 441.45 121.87 441.233 122.47 440.8C123.07 440.367 123.37 439.75 123.37 438.95C123.37 438.117 123.07 437.5 122.47 437.1C121.87 436.667 121.02 436.45 119.92 436.45H112.92V430.4H118.57C119.703 430.4 120.553 430.2 121.12 429.8C121.686 429.4 121.97 428.817 121.97 428.05C121.97 427.25 121.686 426.65 121.12 426.25C120.553 425.85 119.703 425.65 118.57 425.65H113.72V441.45ZM138.521 448V419.1H152.521C155.254 419.1 157.621 419.55 159.621 420.45C161.621 421.317 163.154 422.55 164.221 424.15C165.321 425.75 165.871 427.683 165.871 429.95C165.871 432.183 165.321 434.1 164.221 435.7C163.154 437.3 161.621 438.533 159.621 439.4C157.621 440.267 155.254 440.7 152.521 440.7H143.871L148.171 436.75V448H138.521ZM156.171 448L148.921 437.5H159.171L166.521 448H156.171ZM148.171 437.8L144.671 433.6H151.821C153.287 433.6 154.387 433.283 155.121 432.65C155.854 431.983 156.221 431.083 156.221 429.95C156.221 428.85 155.854 427.983 155.121 427.35C154.387 426.683 153.287 426.35 151.821 426.35H144.671L148.171 422.15V437.8ZM180.838 430H194.138V436.7H180.838V430ZM181.638 440.9H196.388V448H172.138V419.1H195.838V426.2H181.638V440.9ZM198.388 448L211.238 419.1H220.738L233.588 448H224.188L214.388 423.55H217.588L207.638 448H198.388ZM206.038 442.9L208.488 436.2H221.938L224.388 442.9H206.038ZM245.775 441.75L245.275 431.3L256.575 419.1H267.125L254.675 432.6L249.325 437.9L245.775 441.75ZM237.175 448V419.1H246.675V448H237.175ZM256.525 448L247.725 436.65L253.975 430.1L267.725 448H256.525Z"/>
</mask>
<g filter="url(#filter1_i_0_1)">
<path d="M124.837 387V358.1H132.837L144.487 376.8H140.537L151.837 358.1H159.887L159.937 387H151.087L150.987 371.3H152.287L144.487 384.15H140.187L132.037 371.3H133.687V387H124.837ZM163.538 387L176.388 358.1H185.888L198.738 387H189.338L179.538 362.55H182.738L172.788 387H163.538ZM171.188 381.9L173.638 375.2H187.088L189.538 381.9H171.188ZM197.021 387L210.121 369.1V375.7L197.421 358.1H208.221L215.671 368.85L211.071 368.9L218.421 358.1H228.821L216.171 375.3V368.85L229.421 387H218.371L210.871 375.75H215.371L208.021 387H197.021ZM233.501 387V358.1H243.151V387H233.501ZM104.22 448V419.1H119.82C123.853 419.1 126.82 419.817 128.72 421.25C130.653 422.683 131.62 424.483 131.62 426.65C131.62 428.85 130.786 430.667 129.12 432.1C127.453 433.5 125.053 434.2 121.92 434.2L122.77 432.05C125.903 432.05 128.386 432.75 130.22 434.15C132.086 435.517 133.02 437.467 133.02 440C133.02 442.5 131.953 444.467 129.82 445.9C127.72 447.3 124.653 448 120.62 448H104.22ZM113.72 441.45H119.92C121.02 441.45 121.87 441.233 122.47 440.8C123.07 440.367 123.37 439.75 123.37 438.95C123.37 438.117 123.07 437.5 122.47 437.1C121.87 436.667 121.02 436.45 119.92 436.45H112.92V430.4H118.57C119.703 430.4 120.553 430.2 121.12 429.8C121.686 429.4 121.97 428.817 121.97 428.05C121.97 427.25 121.686 426.65 121.12 426.25C120.553 425.85 119.703 425.65 118.57 425.65H113.72V441.45ZM138.521 448V419.1H152.521C155.254 419.1 157.621 419.55 159.621 420.45C161.621 421.317 163.154 422.55 164.221 424.15C165.321 425.75 165.871 427.683 165.871 429.95C165.871 432.183 165.321 434.1 164.221 435.7C163.154 437.3 161.621 438.533 159.621 439.4C157.621 440.267 155.254 440.7 152.521 440.7H143.871L148.171 436.75V448H138.521ZM156.171 448L148.921 437.5H159.171L166.521 448H156.171ZM148.171 437.8L144.671 433.6H151.821C153.287 433.6 154.387 433.283 155.121 432.65C155.854 431.983 156.221 431.083 156.221 429.95C156.221 428.85 155.854 427.983 155.121 427.35C154.387 426.683 153.287 426.35 151.821 426.35H144.671L148.171 422.15V437.8ZM180.838 430H194.138V436.7H180.838V430ZM181.638 440.9H196.388V448H172.138V419.1H195.838V426.2H181.638V440.9ZM198.388 448L211.238 419.1H220.738L233.588 448H224.188L214.388 423.55H217.588L207.638 448H198.388ZM206.038 442.9L208.488 436.2H221.938L224.388 442.9H206.038ZM245.775 441.75L245.275 431.3L256.575 419.1H267.125L254.675 432.6L249.325 437.9L245.775 441.75ZM237.175 448V419.1H246.675V448H237.175ZM256.525 448L247.725 436.65L253.975 430.1L267.725 448H256.525Z" fill="black"/>
</g>
<path d="M124.837 387H123.837V388H124.837V387ZM124.837 358.1V357.1H123.837V358.1H124.837ZM132.837 358.1L133.686 357.571L133.392 357.1H132.837V358.1ZM144.487 376.8V377.8H146.288L145.336 376.271L144.487 376.8ZM140.537 376.8L139.681 376.283L138.764 377.8H140.537V376.8ZM151.837 358.1V357.1H151.273L150.981 357.583L151.837 358.1ZM159.887 358.1L160.887 358.098L160.885 357.1H159.887V358.1ZM159.937 387V388H160.939L160.937 386.998L159.937 387ZM151.087 387L150.087 387.006L150.093 388H151.087V387ZM150.987 371.3V370.3H149.981L149.987 371.306L150.987 371.3ZM152.287 371.3L153.142 371.819L154.064 370.3H152.287V371.3ZM144.487 384.15V385.15H145.05L145.342 384.669L144.487 384.15ZM140.187 384.15L139.342 384.686L139.637 385.15H140.187V384.15ZM132.037 371.3V370.3H130.219L131.192 371.836L132.037 371.3ZM133.687 371.3H134.687V370.3H133.687V371.3ZM133.687 387V388H134.687V387H133.687ZM125.837 387V358.1H123.837V387H125.837ZM124.837 359.1H132.837V357.1H124.837V359.1ZM131.988 358.629L143.638 377.329L145.336 376.271L133.686 357.571L131.988 358.629ZM144.487 375.8H140.537V377.8H144.487V375.8ZM141.393 377.317L152.693 358.617L150.981 357.583L139.681 376.283L141.393 377.317ZM151.837 359.1H159.887V357.1H151.837V359.1ZM158.887 358.102L158.937 387.002L160.937 386.998L160.887 358.098L158.887 358.102ZM159.937 386H151.087V388H159.937V386ZM152.087 386.994L151.987 371.294L149.987 371.306L150.087 387.006L152.087 386.994ZM150.987 372.3H152.287V370.3H150.987V372.3ZM151.432 370.781L143.632 383.631L145.342 384.669L153.142 371.819L151.432 370.781ZM144.487 383.15H140.187V385.15H144.487V383.15ZM141.031 383.614L132.881 370.764L131.192 371.836L139.342 384.686L141.031 383.614ZM132.037 372.3H133.687V370.3H132.037V372.3ZM132.687 371.3V387H134.687V371.3H132.687ZM133.687 386H124.837V388H133.687V386ZM163.538 387L162.625 386.594L161.999 388H163.538V387ZM176.388 358.1V357.1H175.739L175.475 357.694L176.388 358.1ZM185.888 358.1L186.802 357.694L186.538 357.1H185.888V358.1ZM198.738 387V388H200.278L199.652 386.594L198.738 387ZM189.338 387L188.41 387.372L188.662 388H189.338V387ZM179.538 362.55V361.55H178.06L178.61 362.922L179.538 362.55ZM182.738 362.55L183.665 362.927L184.225 361.55H182.738V362.55ZM172.788 387V388H173.461L173.715 387.377L172.788 387ZM171.188 381.9L170.249 381.557L169.758 382.9H171.188V381.9ZM173.638 375.2V374.2H172.939L172.699 374.857L173.638 375.2ZM187.088 375.2L188.028 374.857L187.788 374.2H187.088V375.2ZM189.538 381.9V382.9H190.969L190.478 381.557L189.538 381.9ZM164.452 387.406L177.302 358.506L175.475 357.694L162.625 386.594L164.452 387.406ZM176.388 359.1H185.888V357.1H176.388V359.1ZM184.975 358.506L197.825 387.406L199.652 386.594L186.802 357.694L184.975 358.506ZM198.738 386H189.338V388H198.738V386ZM190.267 386.628L180.467 362.178L178.61 362.922L188.41 387.372L190.267 386.628ZM179.538 363.55H182.738V361.55H179.538V363.55ZM181.812 362.173L171.862 386.623L173.715 387.377L183.665 362.927L181.812 362.173ZM172.788 386H163.538V388H172.788V386ZM172.128 382.243L174.578 375.543L172.699 374.857L170.249 381.557L172.128 382.243ZM173.638 376.2H187.088V374.2H173.638V376.2ZM186.149 375.543L188.599 382.243L190.478 381.557L188.028 374.857L186.149 375.543ZM189.538 380.9H171.188V382.9H189.538V380.9ZM197.021 387L196.214 386.409L195.05 388H197.021V387ZM210.121 369.1H211.121V366.04L209.314 368.509L210.121 369.1ZM210.121 375.7L209.31 376.285L211.121 378.795V375.7H210.121ZM197.421 358.1V357.1H195.466L196.61 358.685L197.421 358.1ZM208.221 358.1L209.043 357.53L208.745 357.1H208.221V358.1ZM215.671 368.85L215.682 369.85L217.566 369.829L216.493 368.28L215.671 368.85ZM211.071 368.9L210.244 368.337L209.167 369.921L211.082 369.9L211.071 368.9ZM218.421 358.1V357.1H217.892L217.594 357.537L218.421 358.1ZM228.821 358.1L229.626 358.692L230.798 357.1H228.821V358.1ZM216.171 375.3H215.171V378.348L216.976 375.892L216.171 375.3ZM216.171 368.85L216.979 368.26L215.171 365.784V368.85H216.171ZM229.421 387V388H231.389L230.229 386.41L229.421 387ZM218.371 387L217.539 387.555L217.836 388H218.371V387ZM210.871 375.75V374.75H209.002L210.039 376.305L210.871 375.75ZM215.371 375.75L216.208 376.297L217.219 374.75H215.371V375.75ZM208.021 387V388H208.562L208.858 387.547L208.021 387ZM197.828 387.591L210.928 369.691L209.314 368.509L196.214 386.409L197.828 387.591ZM209.121 369.1V375.7H211.121V369.1H209.121ZM210.932 375.115L198.232 357.515L196.61 358.685L209.31 376.285L210.932 375.115ZM197.421 359.1H208.221V357.1H197.421V359.1ZM207.399 358.67L214.849 369.42L216.493 368.28L209.043 357.53L207.399 358.67ZM215.66 367.85L211.06 367.9L211.082 369.9L215.682 369.85L215.66 367.85ZM211.898 369.463L219.248 358.663L217.594 357.537L210.244 368.337L211.898 369.463ZM218.421 359.1H228.821V357.1H218.421V359.1ZM228.015 357.508L215.365 374.708L216.976 375.892L229.626 358.692L228.015 357.508ZM217.171 375.3V368.85H215.171V375.3H217.171ZM215.363 369.44L228.613 387.59L230.229 386.41L216.979 368.26L215.363 369.44ZM229.421 386H218.371V388H229.421V386ZM219.203 386.445L211.703 375.195L210.039 376.305L217.539 387.555L219.203 386.445ZM210.871 376.75H215.371V374.75H210.871V376.75ZM214.534 375.203L207.184 386.453L208.858 387.547L216.208 376.297L214.534 375.203ZM208.021 386H197.021V388H208.021V386ZM233.501 387H232.501V388H233.501V387ZM233.501 358.1V357.1H232.501V358.1H233.501ZM243.151 358.1H244.151V357.1H243.151V358.1ZM243.151 387V388H244.151V387H243.151ZM234.501 387V358.1H232.501V387H234.501ZM233.501 359.1H243.151V357.1H233.501V359.1ZM242.151 358.1V387H244.151V358.1H242.151ZM243.151 386H233.501V388H243.151V386ZM104.22 448H103.22V449H104.22V448ZM104.22 419.1V418.1H103.22V419.1H104.22ZM128.72 421.25L128.117 422.048L128.124 422.053L128.72 421.25ZM129.12 432.1L129.763 432.866L129.772 432.858L129.12 432.1ZM121.92 434.2L120.99 433.832L120.449 435.2H121.92V434.2ZM122.77 432.05V431.05H122.09L121.84 431.682L122.77 432.05ZM130.22 434.15L129.613 434.945L129.621 434.951L129.629 434.957L130.22 434.15ZM129.82 445.9L130.374 446.732L130.377 446.73L129.82 445.9ZM113.72 441.45H112.72V442.45H113.72V441.45ZM122.47 440.8L121.884 439.989H121.884L122.47 440.8ZM122.47 437.1L121.884 437.911L121.899 437.922L121.915 437.932L122.47 437.1ZM112.92 436.45H111.92V437.45H112.92V436.45ZM112.92 430.4V429.4H111.92V430.4H112.92ZM121.12 429.8L121.696 430.617L121.12 429.8ZM121.12 426.25L121.696 425.433H121.696L121.12 426.25ZM113.72 425.65V424.65H112.72V425.65H113.72ZM105.22 448V419.1H103.22V448H105.22ZM104.22 420.1H119.82V418.1H104.22V420.1ZM119.82 420.1C123.772 420.1 126.475 420.809 128.117 422.048L129.322 420.452C127.164 418.824 123.934 418.1 119.82 418.1V420.1ZM128.124 422.053C129.836 423.322 130.62 424.838 130.62 426.65H132.62C132.62 424.128 131.471 422.045 129.315 420.447L128.124 422.053ZM130.62 426.65C130.62 428.559 129.913 430.099 128.468 431.342L129.772 432.858C131.66 431.235 132.62 429.141 132.62 426.65H130.62ZM128.477 431.334C127.055 432.529 124.919 433.2 121.92 433.2V435.2C125.187 435.2 127.851 434.471 129.763 432.866L128.477 431.334ZM122.85 434.568L123.7 432.418L121.84 431.682L120.99 433.832L122.85 434.568ZM122.77 433.05C125.761 433.05 128.007 433.718 129.613 434.945L130.827 433.355C128.766 431.782 126.045 431.05 122.77 431.05V433.05ZM129.629 434.957C131.211 436.115 132.02 437.75 132.02 440H134.02C134.02 437.183 132.961 434.918 130.81 433.343L129.629 434.957ZM132.02 440C132.02 442.156 131.128 443.816 129.262 445.07L130.377 446.73C132.778 445.117 134.02 442.844 134.02 440H132.02ZM129.265 445.068C127.401 446.311 124.564 447 120.62 447V449C124.742 449 128.039 448.289 130.374 446.732L129.265 445.068ZM120.62 447H104.22V449H120.62V447ZM113.72 442.45H119.92V440.45H113.72V442.45ZM119.92 442.45C121.133 442.45 122.22 442.214 123.055 441.611L121.884 439.989C121.519 440.253 120.907 440.45 119.92 440.45V442.45ZM123.055 441.611C123.939 440.972 124.37 440.041 124.37 438.95H122.37C122.37 439.459 122.2 439.761 121.884 439.989L123.055 441.611ZM124.37 438.95C124.37 437.843 123.949 436.885 123.024 436.268L121.915 437.932C122.19 438.115 122.37 438.391 122.37 438.95H124.37ZM123.055 436.289C122.22 435.686 121.133 435.45 119.92 435.45V437.45C120.907 437.45 121.519 437.647 121.884 437.911L123.055 436.289ZM119.92 435.45H112.92V437.45H119.92V435.45ZM113.92 436.45V430.4H111.92V436.45H113.92ZM112.92 431.4H118.57V429.4H112.92V431.4ZM118.57 431.4C119.79 431.4 120.884 431.19 121.696 430.617L120.543 428.983C120.222 429.21 119.616 429.4 118.57 429.4V431.4ZM121.696 430.617C122.56 430.008 122.97 429.102 122.97 428.05H120.97C120.97 428.532 120.813 428.792 120.543 428.983L121.696 430.617ZM122.97 428.05C122.97 426.982 122.572 426.051 121.696 425.433L120.543 427.067C120.801 427.249 120.97 427.518 120.97 428.05H122.97ZM121.696 425.433C120.884 424.86 119.79 424.65 118.57 424.65V426.65C119.616 426.65 120.222 426.84 120.543 427.067L121.696 425.433ZM118.57 424.65H113.72V426.65H118.57V424.65ZM112.72 425.65V441.45H114.72V425.65H112.72ZM138.521 448H137.521V449H138.521V448ZM138.521 419.1V418.1H137.521V419.1H138.521ZM159.621 420.45L159.21 421.362L159.223 421.368L159.621 420.45ZM164.221 424.15L163.388 424.705L163.392 424.711L163.396 424.717L164.221 424.15ZM164.221 435.7L163.396 435.133L163.392 435.139L163.388 435.145L164.221 435.7ZM159.621 439.4L160.018 440.318L159.621 439.4ZM143.871 440.7L143.194 439.964L141.304 441.7H143.871V440.7ZM148.171 436.75H149.171V434.474L147.494 436.014L148.171 436.75ZM148.171 448V449H149.171V448H148.171ZM156.171 448L155.348 448.568L155.646 449H156.171V448ZM148.921 437.5V436.5H147.015L148.098 438.068L148.921 437.5ZM159.171 437.5L159.99 436.927L159.691 436.5H159.171V437.5ZM166.521 448V449H168.441L167.34 447.427L166.521 448ZM148.171 437.8L147.402 438.44L149.171 440.562V437.8H148.171ZM144.671 433.6V432.6H142.535L143.902 434.24L144.671 433.6ZM155.121 432.65L155.774 433.407L155.784 433.398L155.793 433.39L155.121 432.65ZM155.121 427.35L154.448 428.09L154.457 428.099L154.467 428.107L155.121 427.35ZM144.671 426.35L143.902 425.71L142.535 427.35H144.671V426.35ZM148.171 422.15H149.171V419.388L147.402 421.51L148.171 422.15ZM139.521 448V419.1H137.521V448H139.521ZM138.521 420.1H152.521V418.1H138.521V420.1ZM152.521 420.1C155.146 420.1 157.367 420.532 159.21 421.362L160.031 419.538C157.874 418.568 155.361 418.1 152.521 418.1V420.1ZM159.223 421.368C161.07 422.168 162.442 423.286 163.388 424.705L165.053 423.595C163.865 421.814 162.171 420.465 160.018 419.532L159.223 421.368ZM163.396 424.717C164.364 426.123 164.871 427.851 164.871 429.95H166.871C166.871 427.516 166.277 425.377 165.045 423.583L163.396 424.717ZM164.871 429.95C164.871 432.012 164.365 433.724 163.396 435.133L165.045 436.267C166.276 434.476 166.871 432.354 166.871 429.95H164.871ZM163.388 435.145C162.442 436.564 161.07 437.682 159.223 438.482L160.018 440.318C162.171 439.385 163.865 438.036 165.053 436.255L163.388 435.145ZM159.223 438.482C157.376 439.283 155.151 439.7 152.521 439.7V441.7C155.357 441.7 157.865 441.251 160.018 440.318L159.223 438.482ZM152.521 439.7H143.871V441.7H152.521V439.7ZM144.547 441.436L148.847 437.486L147.494 436.014L143.194 439.964L144.547 441.436ZM147.171 436.75V448H149.171V436.75H147.171ZM148.171 447H138.521V449H148.171V447ZM156.993 447.432L149.743 436.932L148.098 438.068L155.348 448.568L156.993 447.432ZM148.921 438.5H159.171V436.5H148.921V438.5ZM158.351 438.073L165.701 448.573L167.34 447.427L159.99 436.927L158.351 438.073ZM166.521 447H156.171V449H166.521V447ZM148.939 437.16L145.439 432.96L143.902 434.24L147.402 438.44L148.939 437.16ZM144.671 434.6H151.821V432.6H144.671V434.6ZM151.821 434.6C153.408 434.6 154.786 434.26 155.774 433.407L154.467 431.893C153.988 432.306 153.166 432.6 151.821 432.6V434.6ZM155.793 433.39C156.766 432.506 157.221 431.32 157.221 429.95H155.221C155.221 430.846 154.942 431.461 154.448 431.91L155.793 433.39ZM157.221 429.95C157.221 428.603 156.759 427.443 155.774 426.593L154.467 428.107C154.949 428.523 155.221 429.097 155.221 429.95H157.221ZM155.793 426.61C154.804 425.711 153.419 425.35 151.821 425.35V427.35C153.155 427.35 153.97 427.655 154.448 428.09L155.793 426.61ZM151.821 425.35H144.671V427.35H151.821V425.35ZM145.439 426.99L148.939 422.79L147.402 421.51L143.902 425.71L145.439 426.99ZM147.171 422.15V437.8H149.171V422.15H147.171ZM180.838 430V429H179.838V430H180.838ZM194.138 430H195.138V429H194.138V430ZM194.138 436.7V437.7H195.138V436.7H194.138ZM180.838 436.7H179.838V437.7H180.838V436.7ZM181.638 440.9H180.638V441.9H181.638V440.9ZM196.388 440.9H197.388V439.9H196.388V440.9ZM196.388 448V449H197.388V448H196.388ZM172.138 448H171.138V449H172.138V448ZM172.138 419.1V418.1H171.138V419.1H172.138ZM195.838 419.1H196.838V418.1H195.838V419.1ZM195.838 426.2V427.2H196.838V426.2H195.838ZM181.638 426.2V425.2H180.638V426.2H181.638ZM180.838 431H194.138V429H180.838V431ZM193.138 430V436.7H195.138V430H193.138ZM194.138 435.7H180.838V437.7H194.138V435.7ZM181.838 436.7V430H179.838V436.7H181.838ZM181.638 441.9H196.388V439.9H181.638V441.9ZM195.388 440.9V448H197.388V440.9H195.388ZM196.388 447H172.138V449H196.388V447ZM173.138 448V419.1H171.138V448H173.138ZM172.138 420.1H195.838V418.1H172.138V420.1ZM194.838 419.1V426.2H196.838V419.1H194.838ZM195.838 425.2H181.638V427.2H195.838V425.2ZM180.638 426.2V440.9H182.638V426.2H180.638ZM198.388 448L197.474 447.594L196.849 449H198.388V448ZM211.238 419.1V418.1H210.588L210.324 418.694L211.238 419.1ZM220.738 419.1L221.652 418.694L221.388 418.1H220.738V419.1ZM233.588 448V449H235.127L234.502 447.594L233.588 448ZM224.188 448L223.26 448.372L223.512 449H224.188V448ZM214.388 423.55V422.55H212.91L213.46 423.922L214.388 423.55ZM217.588 423.55L218.514 423.927L219.075 422.55H217.588V423.55ZM207.638 448V449H208.311L208.564 448.377L207.638 448ZM206.038 442.9L205.099 442.557L204.608 443.9H206.038V442.9ZM208.488 436.2V435.2H207.789L207.549 435.857L208.488 436.2ZM221.938 436.2L222.877 435.857L222.637 435.2H221.938V436.2ZM224.388 442.9V443.9H225.819L225.327 442.557L224.388 442.9ZM199.302 448.406L212.152 419.506L210.324 418.694L197.474 447.594L199.302 448.406ZM211.238 420.1H220.738V418.1H211.238V420.1ZM219.824 419.506L232.674 448.406L234.502 447.594L221.652 418.694L219.824 419.506ZM233.588 447H224.188V449H233.588V447ZM225.116 447.628L215.316 423.178L213.46 423.922L223.26 448.372L225.116 447.628ZM214.388 424.55H217.588V422.55H214.388V424.55ZM216.662 423.173L206.712 447.623L208.564 448.377L218.514 423.927L216.662 423.173ZM207.638 447H198.388V449H207.638V447ZM206.977 443.243L209.427 436.543L207.549 435.857L205.099 442.557L206.977 443.243ZM208.488 437.2H221.938V435.2H208.488V437.2ZM220.999 436.543L223.449 443.243L225.327 442.557L222.877 435.857L220.999 436.543ZM224.388 441.9H206.038V443.9H224.388V441.9ZM245.775 441.75L244.776 441.798L244.89 444.185L246.51 442.428L245.775 441.75ZM245.275 431.3L244.541 430.62L244.256 430.928L244.276 431.348L245.275 431.3ZM256.575 419.1V418.1H256.138L255.841 418.42L256.575 419.1ZM267.125 419.1L267.86 419.778L269.407 418.1H267.125V419.1ZM254.675 432.6L255.379 433.31L255.395 433.295L255.41 433.278L254.675 432.6ZM249.325 437.9L248.621 437.19L248.605 437.205L248.59 437.222L249.325 437.9ZM237.175 448H236.175V449H237.175V448ZM237.175 419.1V418.1H236.175V419.1H237.175ZM246.675 419.1H247.675V418.1H246.675V419.1ZM246.675 448V449H247.675V448H246.675ZM256.525 448L255.735 448.613L256.035 449H256.525V448ZM247.725 436.65L247.001 435.96L246.407 436.582L246.935 437.263L247.725 436.65ZM253.975 430.1L254.768 429.491L254.057 428.565L253.251 429.41L253.975 430.1ZM267.725 448V449H269.754L268.518 447.391L267.725 448ZM246.774 441.702L246.274 431.252L244.276 431.348L244.776 441.798L246.774 441.702ZM246.008 431.98L257.308 419.78L255.841 418.42L244.541 430.62L246.008 431.98ZM256.575 420.1H267.125V418.1H256.575V420.1ZM266.39 418.422L253.94 431.922L255.41 433.278L267.86 419.778L266.39 418.422ZM253.971 431.89L248.621 437.19L250.029 438.61L255.379 433.31L253.971 431.89ZM248.59 437.222L245.04 441.072L246.51 442.428L250.06 438.578L248.59 437.222ZM238.175 448V419.1H236.175V448H238.175ZM237.175 420.1H246.675V418.1H237.175V420.1ZM245.675 419.1V448H247.675V419.1H245.675ZM246.675 447H237.175V449H246.675V447ZM257.315 447.387L248.515 436.037L246.935 437.263L255.735 448.613L257.315 447.387ZM248.448 437.34L254.698 430.79L253.251 429.41L247.001 435.96L248.448 437.34ZM253.182 430.709L266.932 448.609L268.518 447.391L254.768 429.491L253.182 430.709ZM267.725 447H256.525V449H267.725V447Z" fill="black" mask="url(#path-1-outside-1_0_1)"/>
</g>
<defs>
<filter id="filter0_d_0_1" x="0" y="0" width="368" height="808" filterUnits="userSpaceOnUse" color-interpolation-filters="sRGB">
<feFlood flood-opacity="0" result="BackgroundImageFix"/>
<feColorMatrix in="SourceAlpha" type="matrix" values="0 0 0 0 0 0 0 0 0 0 0 0 0 0 0 0 0 0 127 0" result="hardAlpha"/>
<feOffset dy="4"/>
<feGaussianBlur stdDeviation="2"/>
<feComposite in2="hardAlpha" operator="out"/>
<feColorMatrix type="matrix" values="0 0 0 0 0 0 0 0 0 0 0 0 0 0 0 0 0 0 0.25 0"/>
<feBlend mode="normal" in2="BackgroundImageFix" result="effect1_dropShadow_0_1"/>
<feBlend mode="normal" in="SourceGraphic" in2="effect1_dropShadow_0_1" result="shape"/>
</filter>
<filter id="filter1_i_0_1" x="104.22" y="358.1" width="163.505" height="93.9" filterUnits="userSpaceOnUse" color-interpolation-filters="sRGB">
<feFlood flood-opacity="0" result="BackgroundImageFix"/>
<feBlend mode="normal" in="SourceGraphic" in2="BackgroundImageFix" result="shape"/>
<feColorMatrix in="SourceAlpha" type="matrix" values="0 0 0 0 0 0 0 0 0 0 0 0 0 0 0 0 0 0 127 0" result="hardAlpha"/>
<feOffset dy="4"/>
<feGaussianBlur stdDeviation="2"/>
<feComposite in2="hardAlpha" operator="arithmetic" k2="-1" k3="1"/>
<feColorMatrix type="matrix" values="0 0 0 0 0 0 0 0 0 0 0 0 0 0 0 0 0 0 0.25 0"/>
<feBlend mode="normal" in2="shape" result="effect1_innerShadow_0_1"/>
</filter>
</defs>
</svg>
